<mxfile host="app.diagrams.net" modified="2022-10-18T17:15:44.005Z" agent="5.0 (Windows NT 10.0; Win64; x64) AppleWebKit/537.36 (KHTML, like Gecko) Chrome/106.0.0.0 Safari/537.36" etag="O6nVz8PyD5xSMIt_NA1z" version="20.4.1" type="github" pages="2">
  <diagram name="Page-1" id="03018318-947c-dd8e-b7a3-06fadd420f32">
    <mxGraphModel dx="2076" dy="978" grid="1" gridSize="10" guides="1" tooltips="1" connect="1" arrows="1" fold="1" page="1" pageScale="1" pageWidth="1100" pageHeight="850" background="none" math="0" shadow="0">
      <root>
        <mxCell id="0" />
        <mxCell id="1" parent="0" />
        <mxCell id="c8ssR8HWYaYmJqbKQ1zU-19" value="Ham&#39;s Journey" style="strokeWidth=1;shadow=0;dashed=0;align=center;html=1;shape=mxgraph.mockup.containers.window;align=left;verticalAlign=top;spacingLeft=8;strokeColor2=#008cff;strokeColor3=#c4c4c4;fontColor=#666666;mainText=;fontSize=17;labelBackgroundColor=none;strokeColor=#FFB366;fillColor=none;" vertex="1" parent="1">
          <mxGeometry width="1100" height="850" as="geometry" />
        </mxCell>
        <mxCell id="c8ssR8HWYaYmJqbKQ1zU-15" value="" style="group" vertex="1" connectable="0" parent="1">
          <mxGeometry x="597" y="350" width="360" height="270" as="geometry" />
        </mxCell>
        <mxCell id="AT5A6iO6WScRpfE4_XMj-1" value="" style="ellipse;whiteSpace=wrap;html=1;aspect=fixed;shadow=0;strokeColor=none;strokeWidth=3;fillColor=#FFF1B8;" vertex="1" parent="c8ssR8HWYaYmJqbKQ1zU-15">
          <mxGeometry x="4" y="142.73" width="86.27" height="86.27" as="geometry" />
        </mxCell>
        <mxCell id="c8ssR8HWYaYmJqbKQ1zU-13" value="" style="ellipse;whiteSpace=wrap;html=1;fillColor=#FFB366;strokeColor=none;rotation=-15;" vertex="1" parent="c8ssR8HWYaYmJqbKQ1zU-15">
          <mxGeometry x="302.4688413443513" y="33.54545454545455" width="52.7377963520315" height="40.941818181818185" as="geometry" />
        </mxCell>
        <mxCell id="c8ssR8HWYaYmJqbKQ1zU-12" value="" style="ellipse;whiteSpace=wrap;html=1;fillColor=#FFB366;strokeColor=none;rotation=120;" vertex="1" parent="c8ssR8HWYaYmJqbKQ1zU-15">
          <mxGeometry x="38.39311574427894" y="209.45454545454547" width="52.7377963520315" height="40.941818181818185" as="geometry" />
        </mxCell>
        <mxCell id="c8ssR8HWYaYmJqbKQ1zU-11" value="" style="ellipse;whiteSpace=wrap;html=1;fillColor=#FFB366;strokeColor=none;rotation=15;" vertex="1" parent="c8ssR8HWYaYmJqbKQ1zU-15">
          <mxGeometry x="291.921282073945" y="186.54545454545456" width="52.7377963520315" height="40.941818181818185" as="geometry" />
        </mxCell>
        <mxCell id="c8ssR8HWYaYmJqbKQ1zU-5" value="" style="ellipse;whiteSpace=wrap;html=1;fillColor=#FFB366;rotation=-35;strokeColor=none;" vertex="1" parent="c8ssR8HWYaYmJqbKQ1zU-15">
          <mxGeometry x="15.83891817106011" y="24.283636363636372" width="88.8456075877224" height="57.27272727272728" as="geometry" />
        </mxCell>
        <mxCell id="c8ssR8HWYaYmJqbKQ1zU-1" value="" style="ellipse;whiteSpace=wrap;html=1;aspect=fixed;fillColor=#FFF1B8;strokeColor=none;" vertex="1" parent="c8ssR8HWYaYmJqbKQ1zU-15">
          <mxGeometry x="5.379255227907216" y="32.72727272727273" width="217.0334928229665" height="217.0334928229665" as="geometry" />
        </mxCell>
        <mxCell id="c8ssR8HWYaYmJqbKQ1zU-2" value="" style="ellipse;whiteSpace=wrap;html=1;fillColor=#FFF1B8;strokeColor=none;" vertex="1" parent="c8ssR8HWYaYmJqbKQ1zU-15">
          <mxGeometry x="84.48594975595445" width="272.4786144854961" height="245.45454545454547" as="geometry" />
        </mxCell>
        <mxCell id="c8ssR8HWYaYmJqbKQ1zU-4" value="" style="ellipse;whiteSpace=wrap;html=1;fillColor=#FFB366;strokeColor=none;" vertex="1" parent="c8ssR8HWYaYmJqbKQ1zU-15">
          <mxGeometry x="163.59264428400172" y="229.09090909090912" width="52.7377963520315" height="40.90909090909091" as="geometry" />
        </mxCell>
        <mxCell id="c8ssR8HWYaYmJqbKQ1zU-6" value="" style="ellipse;whiteSpace=wrap;html=1;fillColor=#FFB366;strokeColor=none;" vertex="1" parent="c8ssR8HWYaYmJqbKQ1zU-15">
          <mxGeometry x="154.80301155866312" y="65.45454545454545" width="105.475592704063" height="106.36363636363637" as="geometry" />
        </mxCell>
        <mxCell id="c8ssR8HWYaYmJqbKQ1zU-7" value="" style="rounded=0;whiteSpace=wrap;html=1;strokeColor=#FFB366;fillColor=#1A1A1A;rotation=-80;direction=south;" vertex="1" parent="c8ssR8HWYaYmJqbKQ1zU-15">
          <mxGeometry x="113.15980756620628" y="155.45086218587988" width="14.727272727272728" height="36.91645744642205" as="geometry" />
        </mxCell>
        <mxCell id="c8ssR8HWYaYmJqbKQ1zU-9" value="" style="ellipse;whiteSpace=wrap;html=1;fillColor=#FFB366;strokeColor=none;rotation=0;" vertex="1" parent="c8ssR8HWYaYmJqbKQ1zU-15">
          <mxGeometry y="102.27272727272728" width="65.04328216750551" height="94.05818181818181" as="geometry" />
        </mxCell>
        <mxCell id="c8ssR8HWYaYmJqbKQ1zU-8" value="" style="rounded=0;whiteSpace=wrap;html=1;strokeColor=#FFB366;fillColor=#1A1A1A;rotation=-90;direction=south;" vertex="1" parent="c8ssR8HWYaYmJqbKQ1zU-15">
          <mxGeometry x="29.188424312046806" y="137.4661890947774" width="13.909090909090908" height="35.15853090135433" as="geometry" />
        </mxCell>
        <mxCell id="c8ssR8HWYaYmJqbKQ1zU-10" value="" style="ellipse;whiteSpace=wrap;html=1;strokeColor=#FFB366;fillColor=#A66216;rotation=15;" vertex="1" parent="c8ssR8HWYaYmJqbKQ1zU-15">
          <mxGeometry x="48.061711742151374" y="186.54545454545456" width="27.634605288464503" height="16.363636363636363" as="geometry" />
        </mxCell>
        <mxCell id="c8ssR8HWYaYmJqbKQ1zU-21" value="Meet Cricket! He&#39;s a hamster :-)" style="swimlane;strokeColor=#FFB366;fillColor=none;startSize=70;swimlaneLine=1;shadow=0;strokeWidth=3;dropTarget=1;collapsible=1;expand=1;labelBackgroundColor=none;fontSize=20;" vertex="1" parent="1">
          <mxGeometry x="15" y="60" width="1070" height="750" as="geometry">
            <mxRectangle x="15" y="60" width="140" height="70" as="alternateBounds" />
          </mxGeometry>
        </mxCell>
        <mxCell id="c8ssR8HWYaYmJqbKQ1zU-22" value="Quit" style="strokeWidth=1;shadow=0;dashed=0;align=center;html=1;shape=mxgraph.mockup.buttons.button;strokeColor=#6c8ebf;mainText=;buttonStyle=round;fontSize=17;fontStyle=1;fillColor=#dae8fc;whiteSpace=wrap;" vertex="1" parent="c8ssR8HWYaYmJqbKQ1zU-21">
          <mxGeometry x="965" y="21" width="75" height="20" as="geometry" />
        </mxCell>
      </root>
    </mxGraphModel>
  </diagram>
  <diagram name="Copy of Page-1" id="1Qo9HZsK-VYv_XUSIorj">
    <mxGraphModel dx="2076" dy="978" grid="1" gridSize="10" guides="1" tooltips="1" connect="1" arrows="1" fold="1" page="1" pageScale="1" pageWidth="1100" pageHeight="850" background="none" math="0" shadow="0">
      <root>
        <mxCell id="-maqr8Acb1NfEdSjYdDu-0" />
        <mxCell id="-maqr8Acb1NfEdSjYdDu-1" parent="-maqr8Acb1NfEdSjYdDu-0" />
        <mxCell id="-maqr8Acb1NfEdSjYdDu-2" value="Ham&#39;s Journey" style="strokeWidth=1;shadow=0;dashed=0;align=center;html=1;shape=mxgraph.mockup.containers.window;align=left;verticalAlign=top;spacingLeft=8;strokeColor2=#008cff;strokeColor3=#c4c4c4;fontColor=#666666;mainText=;fontSize=17;labelBackgroundColor=none;strokeColor=#FFB366;fillColor=none;" vertex="1" parent="-maqr8Acb1NfEdSjYdDu-1">
          <mxGeometry width="1100" height="850" as="geometry" />
        </mxCell>
        <mxCell id="KucGIDIPe00vnrg-9KAc-2" value="" style="group;noLabel=0;" vertex="1" connectable="0" parent="-maqr8Acb1NfEdSjYdDu-1">
          <mxGeometry x="15" y="60" width="1070" height="750" as="geometry" />
        </mxCell>
        <mxCell id="-maqr8Acb1NfEdSjYdDu-3" value="" style="group" vertex="1" connectable="0" parent="KucGIDIPe00vnrg-9KAc-2">
          <mxGeometry x="680" y="382" width="259" height="180" as="geometry" />
        </mxCell>
        <mxCell id="-maqr8Acb1NfEdSjYdDu-4" value="" style="ellipse;whiteSpace=wrap;html=1;fillColor=#FFB366;strokeColor=none;rotation=-15;" vertex="1" parent="-maqr8Acb1NfEdSjYdDu-3">
          <mxGeometry x="217.60952752274162" y="22.363636363636363" width="37.94191459771155" height="27.294545454545457" as="geometry" />
        </mxCell>
        <mxCell id="-maqr8Acb1NfEdSjYdDu-7" value="" style="ellipse;whiteSpace=wrap;html=1;fillColor=#FFB366;rotation=-35;strokeColor=none;" vertex="1" parent="-maqr8Acb1NfEdSjYdDu-3">
          <mxGeometry x="11.395221684179356" y="16.189090909090915" width="63.91947879227806" height="38.18181818181819" as="geometry" />
        </mxCell>
        <mxCell id="-maqr8Acb1NfEdSjYdDu-9" value="" style="ellipse;whiteSpace=wrap;html=1;fillColor=#FFF1B8;strokeColor=none;" vertex="1" parent="-maqr8Acb1NfEdSjYdDu-3">
          <mxGeometry x="60.78294718553389" width="196.03322542150968" height="163.63636363636363" as="geometry" />
        </mxCell>
        <mxCell id="KucGIDIPe00vnrg-9KAc-1" value="" style="group" vertex="1" connectable="0" parent="-maqr8Acb1NfEdSjYdDu-3">
          <mxGeometry y="21.818181818181817" width="251.12844405120256" height="158.1818181818182" as="geometry" />
        </mxCell>
        <mxCell id="Do4nza-9CfeMZmuSoAG6-0" value="" style="ellipse;whiteSpace=wrap;html=1;aspect=fixed;shadow=0;strokeColor=none;strokeWidth=3;fillColor=#FFF1B8;fontStyle=1" vertex="1" parent="KucGIDIPe00vnrg-9KAc-1">
          <mxGeometry x="2.712305555555542" y="74.32848484848486" width="46.69577847439916" height="46.69577847439916" as="geometry" />
        </mxCell>
        <mxCell id="-maqr8Acb1NfEdSjYdDu-5" value="" style="ellipse;whiteSpace=wrap;html=1;fillColor=#FFB366;strokeColor=none;rotation=120;" vertex="1" parent="KucGIDIPe00vnrg-9KAc-1">
          <mxGeometry x="27.621713827134013" y="117.81818181818183" width="37.94191459771155" height="27.294545454545457" as="geometry" />
        </mxCell>
        <mxCell id="-maqr8Acb1NfEdSjYdDu-6" value="" style="ellipse;whiteSpace=wrap;html=1;fillColor=#FFB366;strokeColor=none;rotation=15;" vertex="1" parent="KucGIDIPe00vnrg-9KAc-1">
          <mxGeometry x="210.02114460319933" y="102.54545454545456" width="37.94191459771155" height="27.294545454545457" as="geometry" />
        </mxCell>
        <mxCell id="-maqr8Acb1NfEdSjYdDu-8" value="" style="ellipse;whiteSpace=wrap;html=1;aspect=fixed;fillColor=#FFF1B8;strokeColor=none;" vertex="1" parent="KucGIDIPe00vnrg-9KAc-1">
          <mxGeometry x="6.87" width="140" height="140" as="geometry" />
        </mxCell>
        <mxCell id="-maqr8Acb1NfEdSjYdDu-10" value="" style="ellipse;whiteSpace=wrap;html=1;fillColor=#FFB366;strokeColor=none;" vertex="1" parent="KucGIDIPe00vnrg-9KAc-1">
          <mxGeometry x="117.69581908210124" y="130.90909090909093" width="37.94191459771155" height="27.27272727272727" as="geometry" />
        </mxCell>
        <mxCell id="-maqr8Acb1NfEdSjYdDu-11" value="" style="ellipse;whiteSpace=wrap;html=1;fillColor=#FFB366;strokeColor=none;" vertex="1" parent="KucGIDIPe00vnrg-9KAc-1">
          <mxGeometry x="120" y="21.82" width="67.26" height="68.18" as="geometry" />
        </mxCell>
        <mxCell id="-maqr8Acb1NfEdSjYdDu-12" value="" style="rounded=0;whiteSpace=wrap;html=1;strokeColor=#FFB366;fillColor=#1A1A1A;rotation=-90;" vertex="1" parent="KucGIDIPe00vnrg-9KAc-1">
          <mxGeometry x="73.43025205143775" y="90.54545454545453" width="26.559340218398084" height="9.818181818181818" as="geometry" />
        </mxCell>
        <mxCell id="-maqr8Acb1NfEdSjYdDu-13" value="" style="ellipse;whiteSpace=wrap;html=1;fillColor=#FFB366;strokeColor=none;rotation=0;" vertex="1" parent="KucGIDIPe00vnrg-9KAc-1">
          <mxGeometry y="46.363636363636374" width="46.795028003844244" height="62.705454545454536" as="geometry" />
        </mxCell>
        <mxCell id="-maqr8Acb1NfEdSjYdDu-14" value="" style="rounded=0;whiteSpace=wrap;html=1;strokeColor=#FFB366;fillColor=#1A1A1A;rotation=-90;" vertex="1" parent="KucGIDIPe00vnrg-9KAc-1">
          <mxGeometry x="13.355553938394468" y="76.90909090909093" width="25.2946097318077" height="9.272727272727272" as="geometry" />
        </mxCell>
        <mxCell id="-maqr8Acb1NfEdSjYdDu-15" value="" style="ellipse;whiteSpace=wrap;html=1;strokeColor=#FFB366;fillColor=#A66216;rotation=15;" vertex="1" parent="KucGIDIPe00vnrg-9KAc-1">
          <mxGeometry x="34.57773150338113" y="102.54545454545456" width="19.88156324920085" height="10.909090909090908" as="geometry" />
        </mxCell>
        <mxCell id="-maqr8Acb1NfEdSjYdDu-16" value="Meet Cricket! He&#39;s a hamster :-) " style="swimlane;strokeColor=#FFB366;fillColor=none;startSize=70;swimlaneLine=1;shadow=0;strokeWidth=3;dropTarget=1;collapsible=1;expand=1;fontSize=20;" vertex="1" parent="KucGIDIPe00vnrg-9KAc-2">
          <mxGeometry width="1070" height="750" as="geometry">
            <mxRectangle x="15" y="60" width="140" height="70" as="alternateBounds" />
          </mxGeometry>
        </mxCell>
        <mxCell id="-maqr8Acb1NfEdSjYdDu-17" value="Quit" style="strokeWidth=1;shadow=0;dashed=0;align=center;html=1;shape=mxgraph.mockup.buttons.button;strokeColor=#6c8ebf;mainText=;buttonStyle=round;fontSize=17;fontStyle=1;fillColor=#dae8fc;whiteSpace=wrap;" vertex="1" parent="-maqr8Acb1NfEdSjYdDu-16">
          <mxGeometry x="965" y="21" width="75" height="20" as="geometry" />
        </mxCell>
        <mxCell id="KucGIDIPe00vnrg-9KAc-0" value="Cricket is on the hunt for treats! He is at [X: ] location!" style="rounded=0;whiteSpace=wrap;html=1;shadow=0;labelBackgroundColor=none;strokeColor=#FFF1B8;strokeWidth=3;fontSize=20;fillColor=#ABDAF5;" vertex="1" parent="-maqr8Acb1NfEdSjYdDu-16">
          <mxGeometry x="178" y="90" width="715" height="60" as="geometry" />
        </mxCell>
        <mxCell id="KucGIDIPe00vnrg-9KAc-3" value="Using classes ellipses and rectangle from javafx shapes package, I will make a Hamster" style="text;html=1;strokeColor=none;fillColor=none;align=center;verticalAlign=middle;whiteSpace=wrap;rounded=0;shadow=0;labelBackgroundColor=none;strokeWidth=3;fontSize=20;" vertex="1" parent="-maqr8Acb1NfEdSjYdDu-16">
          <mxGeometry x="428" y="520" width="215" height="30" as="geometry" />
        </mxCell>
        <mxCell id="KucGIDIPe00vnrg-9KAc-5" value="" style="rounded=1;whiteSpace=wrap;html=1;shadow=0;labelBackgroundColor=none;strokeColor=none;strokeWidth=3;fontSize=20;fillColor=#1A1A1A;rotation=15;arcSize=50;" vertex="1" parent="-maqr8Acb1NfEdSjYdDu-16">
          <mxGeometry x="599.3" y="401.43" width="57" height="10" as="geometry" />
        </mxCell>
        <mxCell id="KucGIDIPe00vnrg-9KAc-8" value="" style="rounded=1;whiteSpace=wrap;html=1;shadow=0;labelBackgroundColor=none;strokeColor=none;strokeWidth=3;fontSize=20;fillColor=#1A1A1A;rotation=45;arcSize=50;" vertex="1" parent="-maqr8Acb1NfEdSjYdDu-16">
          <mxGeometry x="617" y="368" width="57" height="10" as="geometry" />
        </mxCell>
        <mxCell id="KucGIDIPe00vnrg-9KAc-9" value="" style="rounded=1;whiteSpace=wrap;html=1;shadow=0;labelBackgroundColor=none;strokeColor=none;strokeWidth=3;fontSize=20;fillColor=#1A1A1A;rotation=75;arcSize=50;" vertex="1" parent="-maqr8Acb1NfEdSjYdDu-16">
          <mxGeometry x="653.3" y="352" width="57" height="10" as="geometry" />
        </mxCell>
        <mxCell id="KucGIDIPe00vnrg-9KAc-10" value="when key is pressed, hamster will stop and be &quot;alert!&quot;" style="text;html=1;strokeColor=none;fillColor=none;align=center;verticalAlign=middle;whiteSpace=wrap;rounded=0;shadow=0;labelBackgroundColor=none;strokeWidth=3;fontSize=20;" vertex="1" parent="-maqr8Acb1NfEdSjYdDu-16">
          <mxGeometry x="735" y="290" width="175" height="30" as="geometry" />
        </mxCell>
        <mxCell id="KucGIDIPe00vnrg-9KAc-14" value="Button to quit, [found in: package: javafx.scene.control]&lt;br&gt;class:createButtonPane&lt;br&gt;" style="text;html=1;strokeColor=none;fillColor=none;align=center;verticalAlign=middle;whiteSpace=wrap;rounded=0;" vertex="1" parent="-maqr8Acb1NfEdSjYdDu-16">
          <mxGeometry x="965" y="90" width="69.5" height="30" as="geometry" />
        </mxCell>
        <mxCell id="KucGIDIPe00vnrg-9KAc-15" value="Going to create two instances of my createLabelPane class in order to have a top and bottom pane" style="text;html=1;strokeColor=none;fillColor=none;align=center;verticalAlign=middle;whiteSpace=wrap;rounded=0;" vertex="1" parent="-maqr8Acb1NfEdSjYdDu-16">
          <mxGeometry x="205" y="570" width="60" height="30" as="geometry" />
        </mxCell>
        <mxCell id="KucGIDIPe00vnrg-9KAc-11" value="&lt;font style=&quot;font-size: 14px;&quot;&gt;Using a BorderPane and thinking of leaving left and right blank so its just the top, center, and the bottom [found in: package javafx.scene.layout] --&amp;gt; classes: Border Pane and createButtonPane will live within PaneOrganizer class&lt;/font&gt;" style="text;html=1;strokeColor=none;fillColor=none;align=center;verticalAlign=middle;whiteSpace=wrap;rounded=0;" vertex="1" parent="-maqr8Acb1NfEdSjYdDu-1">
          <mxGeometry x="70" y="240" width="150" height="174" as="geometry" />
        </mxCell>
        <mxCell id="KucGIDIPe00vnrg-9KAc-13" value="To stop Cricket, press spacebar!" style="rounded=0;whiteSpace=wrap;html=1;shadow=0;labelBackgroundColor=none;strokeColor=#FFF1B8;strokeWidth=3;fontSize=20;fillColor=#ABDAF5;" vertex="1" parent="-maqr8Acb1NfEdSjYdDu-1">
          <mxGeometry x="193" y="730" width="715" height="60" as="geometry" />
        </mxCell>
      </root>
    </mxGraphModel>
  </diagram>
</mxfile>
